<svg width="16" height="16" viewBox="0 0 16 16" fill="none" xmlns="http://www.w3.org/2000/svg">
<path d="M8 7C7.55499 7 7.11998 6.86804 6.74997 6.62081C6.37996 6.37357 6.09157 6.02217 5.92127 5.61104C5.75097 5.1999 5.70642 4.7475 5.79323 4.31105C5.88005 3.87459 6.09434 3.47368 6.40901 3.15901C6.72368 2.84434 7.12459 2.63005 7.56105 2.54323C7.9975 2.45642 8.4499 2.50097 8.86104 2.67127C9.27217 2.84157 9.62357 3.12996 9.87081 3.49997C10.118 3.86998 10.25 4.30499 10.25 4.75C10.25 5.34674 10.0129 5.91903 9.59099 6.34099C9.16903 6.76295 8.59674 7 8 7ZM11.75 8.5C11.305 8.5 10.87 8.63196 10.5 8.87919C10.13 9.12643 9.84157 9.47783 9.67127 9.88896C9.50098 10.3001 9.45642 10.7525 9.54323 11.189C9.63005 11.6254 9.84434 12.0263 10.159 12.341C10.4737 12.6557 10.8746 12.87 11.311 12.9568C11.7475 13.0436 12.1999 12.999 12.611 12.8287C13.0222 12.6584 13.3736 12.37 13.6208 12C13.868 11.63 14 11.195 14 10.75C14 10.1533 13.7629 9.58097 13.341 9.15901C12.919 8.73705 12.3467 8.5 11.75 8.5ZM4.25 8.5C3.80499 8.5 3.36998 8.63196 2.99997 8.87919C2.62996 9.12643 2.34157 9.47783 2.17127 9.88896C2.00097 10.3001 1.95642 10.7525 2.04323 11.189C2.13005 11.6254 2.34434 12.0263 2.65901 12.341C2.97368 12.6557 3.37459 12.87 3.81105 12.9568C4.2475 13.0436 4.6999 12.999 5.11104 12.8287C5.52217 12.6584 5.87357 12.37 6.12081 12C6.36804 11.63 6.5 11.195 6.5 10.75C6.5 10.1533 6.26295 9.58097 5.84099 9.15901C5.41903 8.73705 4.84674 8.5 4.25 8.5Z" fill="black" fill-opacity="0.04"/>
<path d="M10.75 4.75C10.75 4.2061 10.5887 3.67442 10.2865 3.22218C9.98437 2.76995 9.55488 2.41747 9.05238 2.20933C8.54988 2.00119 7.99695 1.94673 7.4635 2.05284C6.93006 2.15895 6.44005 2.42086 6.05546 2.80546C5.67086 3.19005 5.40895 3.68005 5.30284 4.2135C5.19673 4.74695 5.25119 5.29988 5.45933 5.80238C5.66747 6.30488 6.01995 6.73437 6.47218 7.03654C6.92442 7.33872 7.4561 7.5 8 7.5C8.72909 7.49917 9.42809 7.20918 9.94363 6.69363C10.4592 6.17809 10.7492 5.47909 10.75 4.75ZM8 6.5C7.65388 6.5 7.31554 6.39737 7.02775 6.20507C6.73997 6.01278 6.51567 5.73947 6.38321 5.4197C6.25076 5.09993 6.2161 4.74806 6.28363 4.40859C6.35115 4.06913 6.51782 3.75731 6.76256 3.51256C7.00731 3.26782 7.31913 3.10115 7.65859 3.03363C7.99806 2.9661 8.34993 3.00076 8.6697 3.13321C8.98947 3.26567 9.26278 3.48997 9.45507 3.77775C9.64737 4.06554 9.75 4.40388 9.75 4.75C9.75 5.21413 9.56563 5.65925 9.23744 5.98744C8.90925 6.31563 8.46413 6.5 8 6.5ZM11.75 8C11.2061 8 10.6744 8.16129 10.2222 8.46346C9.76995 8.76563 9.41747 9.19513 9.20933 9.69762C9.00119 10.2001 8.94673 10.7531 9.05284 11.2865C9.15895 11.8199 9.42086 12.31 9.80546 12.6945C10.1901 13.0791 10.6801 13.3411 11.2135 13.4472C11.747 13.5533 12.2999 13.4988 12.8024 13.2907C13.3049 13.0825 13.7344 12.7301 14.0365 12.2778C14.3387 11.8256 14.5 11.2939 14.5 10.75C14.4992 10.0209 14.2092 9.32192 13.6936 8.80637C13.1781 8.29083 12.4791 8.00083 11.75 8ZM11.75 12.5C11.4039 12.5 11.0655 12.3974 10.7778 12.2051C10.49 12.0128 10.2657 11.7395 10.1332 11.4197C10.0008 11.0999 9.9661 10.7481 10.0336 10.4086C10.1012 10.0691 10.2678 9.75731 10.5126 9.51256C10.7573 9.26782 11.0691 9.10115 11.4086 9.03363C11.7481 8.9661 12.0999 9.00076 12.4197 9.13321C12.7395 9.26567 13.0128 9.48997 13.2051 9.77775C13.3974 10.0655 13.5 10.4039 13.5 10.75C13.5 11.2141 13.3156 11.6592 12.9874 11.9874C12.6592 12.3156 12.2141 12.5 11.75 12.5ZM4.25 8C3.7061 8 3.17442 8.16129 2.72218 8.46346C2.26995 8.76563 1.91747 9.19513 1.70933 9.69762C1.50119 10.2001 1.44673 10.7531 1.55284 11.2865C1.65895 11.8199 1.92086 12.31 2.30546 12.6945C2.69005 13.0791 3.18006 13.3411 3.7135 13.4472C4.24695 13.5533 4.79988 13.4988 5.30238 13.2907C5.80488 13.0825 6.23437 12.7301 6.53654 12.2778C6.83872 11.8256 7 11.2939 7 10.75C6.99917 10.0209 6.70918 9.32192 6.19363 8.80637C5.67809 8.29083 4.97909 8.00083 4.25 8ZM4.25 12.5C3.90388 12.5 3.56554 12.3974 3.27775 12.2051C2.98997 12.0128 2.76567 11.7395 2.63321 11.4197C2.50076 11.0999 2.4661 10.7481 2.53363 10.4086C2.60115 10.0691 2.76782 9.75731 3.01256 9.51256C3.25731 9.26782 3.56913 9.10115 3.90859 9.03363C4.24806 8.9661 4.59993 9.00076 4.9197 9.13321C5.23947 9.26567 5.51278 9.48997 5.70507 9.77775C5.89737 10.0655 6 10.4039 6 10.75C6 11.2141 5.81563 11.6592 5.48744 11.9874C5.15925 12.3156 4.71413 12.5 4.25 12.5Z" fill="black"/>
</svg>
