<svg width="16" height="16" viewBox="0 0 16 16" fill="none" xmlns="http://www.w3.org/2000/svg">
<path d="M4 6V10C4 10.1326 3.94732 10.2598 3.85355 10.3536C3.75979 10.4473 3.63261 10.5 3.5 10.5H3C2.86739 10.5 2.74021 10.4473 2.64645 10.3536C2.55268 10.2598 2.5 10.1326 2.5 10V6C2.5 5.86739 2.55268 5.74021 2.64645 5.64645C2.74021 5.55268 2.86739 5.5 3 5.5H3.5C3.63261 5.5 3.75979 5.55268 3.85355 5.64645C3.94732 5.74021 4 5.86739 4 6ZM6 1.5H5.5C5.36739 1.5 5.24021 1.55268 5.14645 1.64645C5.05268 1.74021 5 1.86739 5 2V14C5 14.1326 5.05268 14.2598 5.14645 14.3536C5.24021 14.4473 5.36739 14.5 5.5 14.5H6C6.13261 14.5 6.25979 14.4473 6.35355 14.3536C6.44732 14.2598 6.5 14.1326 6.5 14V2C6.5 1.86739 6.44732 1.74021 6.35355 1.64645C6.25979 1.55268 6.13261 1.5 6 1.5ZM8.5 3.5H8C7.86739 3.5 7.74021 3.55268 7.64645 3.64645C7.55268 3.74021 7.5 3.86739 7.5 4V12C7.5 12.1326 7.55268 12.2598 7.64645 12.3536C7.74021 12.4473 7.86739 12.5 8 12.5H8.5C8.63261 12.5 8.75979 12.4473 8.85355 12.3536C8.94732 12.2598 9 12.1326 9 12V4C9 3.86739 8.94732 3.74021 8.85355 3.64645C8.75979 3.55268 8.63261 3.5 8.5 3.5ZM11 5.5H10.5C10.3674 5.5 10.2402 5.55268 10.1464 5.64645C10.0527 5.74021 10 5.86739 10 6V10C10 10.1326 10.0527 10.2598 10.1464 10.3536C10.2402 10.4473 10.3674 10.5 10.5 10.5H11C11.1326 10.5 11.2598 10.4473 11.3536 10.3536C11.4473 10.2598 11.5 10.1326 11.5 10V6C11.5 5.86739 11.4473 5.74021 11.3536 5.64645C11.2598 5.55268 11.1326 5.5 11 5.5ZM13.5 4.5H13C12.8674 4.5 12.7402 4.55268 12.6464 4.64645C12.5527 4.74021 12.5 4.86739 12.5 5V11C12.5 11.1326 12.5527 11.2598 12.6464 11.3536C12.7402 11.4473 12.8674 11.5 13 11.5H13.5C13.6326 11.5 13.7598 11.4473 13.8536 11.3536C13.9473 11.2598 14 11.1326 14 11V5C14 4.86739 13.9473 4.74021 13.8536 4.64645C13.7598 4.55268 13.6326 4.5 13.5 4.5Z" fill="white"/>
</svg>
