<svg width="16" height="16" viewBox="0 0 16 16" fill="none" xmlns="http://www.w3.org/2000/svg">
<path d="M11.5 9.5L10.5869 13.6088C10.5621 13.7198 10.5003 13.819 10.4116 13.8901C10.3228 13.9613 10.2125 14 10.0988 14H5.90125C5.78752 14 5.67718 13.9613 5.58844 13.8901C5.4997 13.819 5.43786 13.7198 5.41313 13.6088L4.5 9.5H11.5Z" fill="black" fill-opacity="0.04"/>
<path d="M12.5 8.99998H7.70625L7.85313 8.85311L9.10688 7.59936C9.61326 7.85437 10.1712 7.99033 10.7381 7.99686C11.3088 7.99836 11.8687 7.8422 12.3563 7.54561C13.8388 6.64811 14.6331 4.57061 14.4813 1.98811C14.4741 1.86578 14.4223 1.75034 14.3357 1.6637C14.249 1.57706 14.1336 1.52525 14.0113 1.51811C11.4288 1.36686 9.35125 2.16061 8.45313 3.64311C7.86875 4.60873 7.85375 5.77498 8.39938 6.89311L7.5 7.79248L6.73688 7.02936C7.11188 6.20123 7.085 5.34186 6.65 4.62436C5.97063 3.49998 4.4125 2.89998 2.48313 3.01373C2.36102 3.02101 2.24581 3.07279 2.15932 3.15929C2.07282 3.24579 2.02103 3.361 2.01375 3.48311C1.9 5.41248 2.5 6.96998 3.625 7.64998C4.00138 7.87979 4.43402 8.00093 4.875 7.99998C5.27507 7.99601 5.66969 7.90673 6.0325 7.73811L6.79313 8.49998L6.29313 8.99998H3.5C3.3674 8.99998 3.24022 9.05266 3.14645 9.14643C3.05268 9.2402 3 9.36737 3 9.49998C3 9.63259 3.05268 9.75977 3.14645 9.85353C3.24022 9.9473 3.3674 9.99998 3.5 9.99998H4.09938L4.925 13.7169C4.97319 13.9396 5.0965 14.139 5.27425 14.2815C5.452 14.4241 5.67338 14.5013 5.90125 14.5H10.0994C10.3272 14.501 10.5485 14.4238 10.7262 14.2813C10.9039 14.1387 11.0272 13.9395 11.0756 13.7169L11.9013 9.99998H12.5C12.6326 9.99998 12.7598 9.9473 12.8536 9.85353C12.9473 9.75977 13 9.63259 13 9.49998C13 9.36737 12.9473 9.2402 12.8536 9.14643C12.7598 9.05266 12.6326 8.99998 12.5 8.99998ZM9.3125 4.16123C9.96625 3.08248 11.5144 2.47373 13.5 2.50061C13.5256 4.48873 12.9181 6.03686 11.8394 6.68811C11.12 7.12561 10.2519 7.09686 9.38438 6.61436C8.90125 5.74998 8.875 4.88061 9.3125 4.16123ZM5.75688 6.75686C5.18188 7.06436 4.6125 7.07873 4.1425 6.79436C3.42375 6.35873 3.00938 5.33186 3 3.99998C4.33188 4.00936 5.35938 4.42373 5.79438 5.14248C6.07938 5.61248 6.0625 6.18186 5.75688 6.75686ZM10.0994 13.5H5.90125L5.125 9.99998H10.875L10.0994 13.5Z" fill="black"/>
</svg>
