<svg width="16" height="16" viewBox="0 0 16 16" fill="none" xmlns="http://www.w3.org/2000/svg">
<path d="M14 5.75C14 6.87717 13.5522 7.95817 12.7552 8.7552C11.9582 9.55223 10.8772 10 9.74999 10H4.74999C4.35102 9.99962 3.95692 9.91243 3.59502 9.74448C3.23313 9.57654 2.91211 9.33187 2.65424 9.02744C2.39637 8.72301 2.20783 8.36612 2.10171 7.98153C1.99558 7.59694 1.9744 7.19386 2.03965 6.80026C2.1049 6.40667 2.255 6.03199 2.47955 5.70222C2.7041 5.37244 2.99772 5.09548 3.34002 4.89054C3.68233 4.6856 4.06513 4.5576 4.46185 4.51541C4.85858 4.47323 5.25974 4.51787 5.63749 4.64625V4.65312C5.90453 3.65668 6.5246 2.79124 7.38222 2.21792C8.23985 1.64461 9.2766 1.40249 10.2994 1.53666C11.3223 1.67082 12.2615 2.17211 12.9423 2.94721C13.6231 3.72231 13.9989 4.71839 14 5.75Z" fill="black" fill-opacity="0.04"/>
<path d="M9.91625 12.2775L7.91625 15.2775C7.87981 15.3322 7.83296 15.3791 7.77837 15.4157C7.72378 15.4522 7.66253 15.4777 7.59811 15.4906C7.46801 15.5166 7.3329 15.4899 7.2225 15.4163C7.1121 15.3427 7.03547 15.2282 7.00944 15.0981C6.98342 14.968 7.01015 14.8329 7.08375 14.7225L9.08375 11.7225C9.15735 11.6121 9.27179 11.5355 9.40189 11.5095C9.53199 11.4834 9.6671 11.5102 9.7775 11.5838C9.8879 11.6574 9.96453 11.7718 9.99056 11.9019C10.0166 12.032 9.98985 12.1671 9.91625 12.2775ZM14.5 5.75001C14.4987 7.00938 13.9978 8.21679 13.1073 9.1073C12.2168 9.99781 11.0094 10.4987 9.75 10.5H8.2675L6.41625 13.2775C6.37981 13.3322 6.33296 13.3791 6.27837 13.4157C6.22378 13.4522 6.16253 13.4777 6.09811 13.4906C6.03369 13.5034 5.96736 13.5035 5.90292 13.4908C5.83847 13.478 5.77716 13.4527 5.7225 13.4163C5.66784 13.3798 5.62089 13.333 5.58433 13.2784C5.54778 13.2238 5.52233 13.1625 5.50944 13.0981C5.49656 13.0337 5.49649 12.9674 5.50924 12.9029C5.52199 12.8385 5.54731 12.7772 5.58375 12.7225L7.06563 10.5H4.75C3.88805 10.5 3.0614 10.1576 2.4519 9.5481C1.84241 8.93861 1.5 8.11196 1.5 7.25001C1.5 6.38805 1.84241 5.5614 2.4519 4.95191C3.0614 4.34242 3.88805 4.00001 4.75 4.00001C4.93684 4.00017 5.12333 4.01606 5.3075 4.04751C5.70626 3.01174 6.45478 2.14809 7.42337 1.60619C8.39197 1.06429 9.51961 0.878287 10.6109 1.0804C11.7022 1.28252 12.6885 1.86003 13.3988 2.71286C14.109 3.5657 14.4986 4.64013 14.5 5.75001ZM13.5 5.75001C13.496 4.77629 13.1138 3.84223 12.4341 3.14503C11.7543 2.44782 10.8303 2.04202 9.85697 2.01331C8.88367 1.9846 7.9373 2.33521 7.21765 2.99114C6.498 3.64707 6.06139 4.55697 6 5.52876C5.99622 5.59442 5.97955 5.65869 5.95094 5.71791C5.92232 5.77713 5.88232 5.83013 5.83322 5.87389C5.73406 5.96227 5.60386 6.00763 5.47125 6.00001C5.33864 5.99238 5.21449 5.93239 5.12612 5.83323C5.03774 5.73407 4.99238 5.60387 5 5.47126C5.00875 5.31876 5.02479 5.16813 5.04812 5.01938C4.94925 5.00669 4.84968 5.00022 4.75 5.00001C4.15326 5.00001 3.58097 5.23706 3.15901 5.65902C2.73705 6.08097 2.5 6.65327 2.5 7.25001C2.5 7.84674 2.73705 8.41904 3.15901 8.841C3.58097 9.26295 4.15326 9.50001 4.75 9.50001H9.75C10.7442 9.49885 11.6974 9.10339 12.4004 8.40038C13.1034 7.69737 13.4988 6.74421 13.5 5.75001Z" fill="black"/>
</svg>
