<svg width="16" height="16" viewBox="0 0 16 16" fill="none" xmlns="http://www.w3.org/2000/svg">
<path d="M14 7.75C14 8.5051 13.8513 9.25281 13.5623 9.95043C13.2733 10.6481 12.8498 11.2819 12.3159 11.8159C11.7819 12.3498 11.1481 12.7733 10.4504 13.0623C9.75281 13.3513 9.0051 13.5 8.25 13.5H2.97938C2.9164 13.5001 2.85403 13.4877 2.79583 13.4637C2.73763 13.4396 2.68475 13.4043 2.64022 13.3598C2.59569 13.3152 2.56038 13.2624 2.53632 13.2042C2.51226 13.146 2.49992 13.0836 2.5 13.0206V7.75C2.5 6.22501 3.1058 4.76247 4.18414 3.68414C5.26247 2.6058 6.72501 2 8.25 2C9.0051 2 9.75281 2.14873 10.4504 2.43769C11.1481 2.72666 11.7819 3.1502 12.3159 3.68414C12.8498 4.21807 13.2733 4.85195 13.5623 5.54957C13.8513 6.24719 14 6.9949 14 7.75Z" fill="black" fill-opacity="0.04"/>
<path d="M10.5 7C10.5 7.13261 10.4473 7.25979 10.3536 7.35355C10.2598 7.44732 10.1326 7.5 10 7.5H6C5.86739 7.5 5.74021 7.44732 5.64645 7.35355C5.55268 7.25979 5.5 7.13261 5.5 7C5.5 6.86739 5.55268 6.74021 5.64645 6.64645C5.74021 6.55268 5.86739 6.5 6 6.5H10C10.1326 6.5 10.2598 6.55268 10.3536 6.64645C10.4473 6.74021 10.5 6.86739 10.5 7ZM10 8.5H6C5.86739 8.5 5.74021 8.55268 5.64645 8.64645C5.55268 8.74021 5.5 8.86739 5.5 9C5.5 9.13261 5.55268 9.25979 5.64645 9.35355C5.74021 9.44732 5.86739 9.5 6 9.5H10C10.1326 9.5 10.2598 9.44732 10.3536 9.35355C10.4473 9.25979 10.5 9.13261 10.5 9C10.5 8.86739 10.4473 8.74021 10.3536 8.64645C10.2598 8.55268 10.1326 8.5 10 8.5ZM14.5 7.75C14.4982 9.40704 13.8391 10.9957 12.6674 12.1674C11.4957 13.3391 9.90704 13.9982 8.25 14H2.97937C2.71973 13.9997 2.47081 13.8964 2.28722 13.7128C2.10362 13.5292 2.00033 13.2803 2 13.0206V7.75C2 6.0924 2.65848 4.50268 3.83058 3.33058C5.00269 2.15848 6.5924 1.5 8.25 1.5C9.9076 1.5 11.4973 2.15848 12.6694 3.33058C13.8415 4.50268 14.5 6.0924 14.5 7.75ZM13.5 7.75C13.5 6.35761 12.9469 5.02226 11.9623 4.03769C10.9777 3.05312 9.64239 2.5 8.25 2.5C6.85761 2.5 5.52226 3.05312 4.53769 4.03769C3.55312 5.02226 3 6.35761 3 7.75V13H8.25C9.64193 12.9985 10.9764 12.4449 11.9607 11.4607C12.9449 10.4764 13.4985 9.14193 13.5 7.75Z" fill="black"/>
</svg>
