<svg width="16" height="16" viewBox="0 0 16 16" fill="none" xmlns="http://www.w3.org/2000/svg">
<path d="M13 4V7.5C11.6739 7.5 10.4021 8.02678 9.46447 8.96447C8.52678 9.90215 8 11.1739 8 12.5C8 11.1739 7.47322 9.90215 6.53553 8.96447C5.59785 8.02678 4.32608 7.5 3 7.5V4C3.7828 3.99936 4.55473 4.1833 5.25313 4.53687C5.97625 2.51187 8 1.5 8 1.5C8 1.5 10.0244 2.51188 10.75 4.53625C11.4475 4.18321 12.2183 3.9995 13 4Z" fill="black" fill-opacity="0.04"/>
<path d="M13 3.50001C12.3189 3.5 11.6438 3.62718 11.0094 3.87501C10.1144 2.01876 8.30625 1.09626 8.22375 1.05438C8.15428 1.01962 8.07768 1.00153 8 1.00153C7.92232 1.00153 7.84572 1.01962 7.77625 1.05438C7.69312 1.09626 5.88562 2.01876 4.99062 3.87501C4.35621 3.62718 3.6811 3.5 3 3.50001C2.86739 3.50001 2.74021 3.55269 2.64645 3.64646C2.55268 3.74022 2.5 3.8674 2.5 4.00001V9.00001C2.5 10.4587 3.07946 11.8576 4.11091 12.8891C5.14236 13.9205 6.54131 14.5 8 14.5C9.45869 14.5 10.8576 13.9205 11.8891 12.8891C12.9205 11.8576 13.5 10.4587 13.5 9.00001V4.00001C13.5 3.8674 13.4473 3.74022 13.3536 3.64646C13.2598 3.55269 13.1326 3.50001 13 3.50001ZM7.5 13.4725C6.40043 13.3482 5.38505 12.8236 4.64737 11.9988C3.90968 11.174 3.50128 10.1066 3.5 9.00001V8.02751C4.59957 8.15183 5.61495 8.67638 6.35263 9.5012C7.09032 10.326 7.49872 11.3934 7.5 12.5V13.4725ZM7.5 9.34126C7.04147 8.68771 6.44615 8.14181 5.7554 7.7415C5.06465 7.34119 4.29503 7.09606 3.5 7.02313V4.52751C4.59957 4.65183 5.61495 5.17638 6.35263 6.0012C7.09032 6.82602 7.49872 7.89344 7.5 9.00001V9.34126ZM5.88438 4.31938C6.46063 3.11813 7.53625 2.36001 8 2.07501C8.465 2.35876 9.5375 3.11251 10.115 4.31938C9.19042 4.89114 8.45479 5.72263 8 6.71001C7.54504 5.72255 6.80919 4.89104 5.88438 4.31938ZM12.5 9.00001C12.4987 10.1066 12.0903 11.174 11.3526 11.9988C10.615 12.8236 9.59957 13.3482 8.5 13.4725V12.5C8.50128 11.3934 8.90968 10.326 9.64736 9.5012C10.385 8.67638 11.4004 8.15183 12.5 8.02751V9.00001ZM12.5 7.02313C11.705 7.09606 10.9354 7.34119 10.2446 7.7415C9.55385 8.14181 8.95853 8.68771 8.5 9.34126V9.00001C8.50128 7.89344 8.90968 6.82602 9.64736 6.0012C10.385 5.17638 11.4004 4.65183 12.5 4.52751V7.02313Z" fill="black"/>
</svg>
