<svg width="16" height="16" viewBox="0 0 16 16" fill="none" xmlns="http://www.w3.org/2000/svg">
<path d="M13 9C13 10.3261 12.4732 11.5979 11.5355 12.5355C10.5979 13.4732 9.32608 14 8 14C6.67392 14 5.40215 13.4732 4.46447 12.5355C3.52678 11.5979 3 10.3261 3 9C3 4.5 8 1 8 1C8 1 13 4.5 13 9Z" fill="black" fill-opacity="0.04"/>
<path d="M10.875 2.98439C10.103 2.09278 9.23409 1.28992 8.28438 0.590637C8.2003 0.531744 8.10015 0.500153 7.9975 0.500153C7.89485 0.500153 7.7947 0.531744 7.71063 0.590637C6.76266 1.29021 5.89545 2.09307 5.125 2.98439C3.40688 4.95751 2.5 7.03751 2.5 9.00001C2.5 10.4587 3.07946 11.8576 4.11091 12.8891C5.14236 13.9206 6.54131 14.5 8 14.5C9.45869 14.5 10.8576 13.9206 11.8891 12.8891C12.9205 11.8576 13.5 10.4587 13.5 9.00001C13.5 7.03751 12.5931 4.95751 10.875 2.98439ZM8 13.5C6.80693 13.4987 5.66311 13.0242 4.81948 12.1805C3.97585 11.3369 3.50132 10.1931 3.5 9.00001C3.5 5.42314 6.96688 2.43751 8 1.62501C9.03312 2.43751 12.5 5.42189 12.5 9.00001C12.4987 10.1931 12.0241 11.3369 11.1805 12.1805C10.3369 13.0242 9.19307 13.4987 8 13.5ZM11.4931 9.58376C11.3635 10.308 11.0151 10.975 10.4948 11.4952C9.9745 12.0154 9.30734 12.3636 8.58313 12.4931C8.55563 12.4975 8.52784 12.4998 8.5 12.5C8.37458 12.5 8.25375 12.4528 8.16148 12.3679C8.06921 12.2829 8.01223 12.1664 8.00185 12.0414C7.99146 11.9164 8.02843 11.7921 8.10542 11.6931C8.18242 11.5941 8.2938 11.5276 8.4175 11.5069C9.45312 11.3325 10.3319 10.4538 10.5075 9.41626C10.5297 9.28548 10.603 9.16887 10.7112 9.0921C10.8193 9.01533 10.9536 8.98468 11.0844 9.00689C11.2152 9.0291 11.3318 9.10236 11.4085 9.21054C11.4853 9.31873 11.516 9.45298 11.4937 9.58376H11.4931Z" fill="black"/>
</svg>
