<svg width="16" height="16" viewBox="0 0 16 16" fill="none" xmlns="http://www.w3.org/2000/svg">
<path d="M8.65876 8.84124C6.66376 5.51562 9.32376 2.19062 14.9769 2.52312C15.3125 8.17624 11.9844 10.8369 8.65876 8.84124ZM1.01626 5.01624C0.77876 9.05437 3.15439 10.9537 5.52939 9.52937C6.95438 7.15437 5.05439 4.77874 1.01626 5.01624Z" fill="black" fill-opacity="0.04"/>
<path d="M15.4769 2.49313C15.4697 2.37081 15.4179 2.25537 15.3313 2.16873C15.2446 2.08209 15.1292 2.03028 15.0069 2.02313C11.7719 1.83563 9.17437 2.81938 8.05812 4.66188C7.32062 5.87938 7.32187 7.35938 8.04812 8.77063C7.63519 9.26185 7.33311 9.83638 7.1625 10.455L6.14562 9.43751C6.63437 8.41688 6.61562 7.35251 6.08312 6.46938C5.25562 5.10813 3.35125 4.37501 0.986871 4.51688C0.864549 4.52403 0.749109 4.57584 0.662467 4.66248C0.575825 4.74912 0.524014 4.86456 0.516871 4.98688C0.377496 7.35126 1.10812 9.25563 2.47 10.0806C2.9202 10.3554 3.43755 10.5006 3.965 10.5C4.47618 10.4937 4.97942 10.3726 5.4375 10.1456L7 11.7081V13.5C7 13.6326 7.05267 13.7598 7.14644 13.8536C7.24021 13.9473 7.36739 14 7.5 14C7.6326 14 7.75978 13.9473 7.85355 13.8536C7.94732 13.7598 8 13.6326 8 13.5V11.6569C7.99777 10.8614 8.26846 10.0893 8.76687 9.46938C9.40996 9.80547 10.1232 9.98532 10.8487 9.99438C11.5502 9.99665 12.2387 9.80501 12.8381 9.44063C14.6806 8.32563 15.6669 5.72813 15.4769 2.49313ZM5.37875 8.67126L3.85312 7.14626C3.75859 7.05645 3.63271 7.00712 3.50233 7.00879C3.37195 7.01046 3.24738 7.06299 3.15518 7.15519C3.06298 7.24739 3.01045 7.37196 3.00878 7.50235C3.00711 7.63273 3.05644 7.7586 3.14625 7.85313L4.67187 9.37876C4.07125 9.57751 3.48875 9.52813 2.98812 9.22501C2.02937 8.64438 1.48687 7.27001 1.5 5.50001C3.26937 5.48438 4.64437 6.02938 5.225 6.98813C5.52812 7.48876 5.5775 8.07126 5.37875 8.67126ZM12.32 8.58626C11.4825 9.09313 10.4981 9.13188 9.49812 8.71126L12.8537 5.35501C12.9476 5.26127 13.0003 5.1341 13.0004 5.00148C13.0004 4.86886 12.9478 4.74164 12.8541 4.64782C12.7603 4.554 12.6332 4.50126 12.5005 4.5012C12.3679 4.50114 12.2407 4.55377 12.1469 4.64751L8.79062 8.00001C8.36812 7.00001 8.40625 6.01501 8.91562 5.17813C9.78687 3.74063 11.8531 2.94063 14.4987 3.00126C14.5587 5.64626 13.7587 7.71501 12.32 8.58626Z" fill="black"/>
</svg>
