<svg width="16" height="16" viewBox="0 0 16 16" fill="none" xmlns="http://www.w3.org/2000/svg">
<path d="M9.74999 4.50001C9.32216 4.49975 8.89625 4.55714 8.48375 4.67063C8.32091 4.40495 8.1231 4.16236 7.89562 3.94938L8.48999 3.10126C8.52767 3.04746 8.55437 2.98676 8.56859 2.92264C8.58281 2.85852 8.58426 2.79222 8.57285 2.72754C8.56145 2.66286 8.53741 2.60106 8.50213 2.54566C8.46684 2.49027 8.42098 2.44237 8.36718 2.40469C8.31338 2.36702 8.25269 2.34031 8.18856 2.3261C8.12444 2.31188 8.05815 2.31043 7.99347 2.32184C7.92878 2.33324 7.86698 2.35727 7.81159 2.39256C7.75619 2.42785 7.70829 2.47371 7.67062 2.52751L7.07624 3.37501C6.58747 3.12822 6.04754 2.99976 5.49999 3.00001C5.46374 3.00001 5.42749 3.00001 5.39124 3.00001L5.21062 1.98188C5.20114 1.91554 5.17842 1.85178 5.14381 1.7944C5.10921 1.73701 5.06341 1.68717 5.00916 1.64783C4.95491 1.60849 4.8933 1.58046 4.828 1.5654C4.7627 1.55034 4.69504 1.54856 4.62904 1.56017C4.56304 1.57178 4.50004 1.59654 4.4438 1.63297C4.38756 1.66941 4.33921 1.71677 4.30164 1.77226C4.26406 1.82775 4.23803 1.89023 4.22507 1.95598C4.21212 2.02173 4.21252 2.08941 4.22624 2.15501L4.40624 3.17626C3.85172 3.35967 3.35179 3.6787 2.95187 4.10438L2.10062 3.50876C2.04686 3.47016 1.98598 3.44261 1.92149 3.42773C1.85701 3.41284 1.79021 3.4109 1.72497 3.42202C1.65973 3.43314 1.59735 3.4571 1.54144 3.49252C1.48553 3.52793 1.43721 3.57409 1.39928 3.62832C1.36135 3.68255 1.33456 3.74377 1.32047 3.80844C1.30637 3.8731 1.30526 3.93992 1.31719 4.00501C1.32911 4.07011 1.35384 4.13219 1.38995 4.18766C1.42605 4.24312 1.4728 4.29087 1.52749 4.32813L2.37499 4.92313C2.12733 5.41181 1.99883 5.95216 1.99999 6.50001C1.99999 6.53563 1.99999 6.57188 1.99999 6.60751L0.98187 6.78751C0.858636 6.80909 0.747974 6.8761 0.671728 6.97529C0.595482 7.07448 0.559193 7.19865 0.570024 7.32329C0.580856 7.44793 0.638021 7.56399 0.730234 7.64854C0.822448 7.73309 0.94301 7.78 1.06812 7.78001C1.09724 7.77997 1.1263 7.77746 1.15499 7.77251L2.17499 7.59251C2.26461 7.86536 2.38763 8.12609 2.54124 8.36876C2.06299 8.81298 1.72958 9.39093 1.58443 10.0273C1.43929 10.6637 1.48913 11.3291 1.72748 11.9367C1.96582 12.5444 2.38162 13.0662 2.92073 13.4342C3.45983 13.8022 4.09726 13.9994 4.74999 14H9.74999C11.0098 14 12.218 13.4996 13.1088 12.6088C13.9995 11.718 14.5 10.5098 14.5 9.25001C14.5 7.99023 13.9995 6.78205 13.1088 5.89125C12.218 5.00045 11.0098 4.50001 9.74999 4.50001ZM2.99999 6.50001C3.00029 5.97054 3.16868 5.45484 3.4809 5.02723C3.79311 4.59961 4.23302 4.28216 4.73725 4.12062C5.24147 3.95908 5.78395 3.96179 6.28653 4.12837C6.78911 4.29495 7.22583 4.61679 7.53374 5.04751C6.5138 5.58426 5.7229 6.47241 5.30749 7.54751C4.65021 7.43405 3.97394 7.52502 3.36999 7.80813C3.1282 7.41464 3.00013 6.96185 2.99999 6.50001ZM9.74999 13H4.74999C4.44226 12.9994 4.13791 12.9358 3.85577 12.8129C3.57363 12.69 3.31969 12.5106 3.10966 12.2857C2.89963 12.0607 2.73797 11.7951 2.63467 11.5052C2.53138 11.2154 2.48865 10.9074 2.50912 10.6003C2.52959 10.2933 2.61284 9.99368 2.7537 9.72008C2.89457 9.44647 3.09006 9.20468 3.32809 9.00964C3.56612 8.8146 3.84164 8.67046 4.13759 8.58613C4.43355 8.50181 4.74366 8.47909 5.04874 8.51938C5.02562 8.66751 5.00937 8.81876 5.00062 8.97126C4.99684 9.03692 5.00604 9.10268 5.02768 9.16479C5.04932 9.22689 5.08298 9.28413 5.12674 9.33323C5.1705 9.38233 5.2235 9.42233 5.28272 9.45094C5.34193 9.47956 5.40621 9.49623 5.47187 9.50001C5.53753 9.50378 5.60329 9.49459 5.6654 9.47295C5.72751 9.45131 5.78474 9.41765 5.83384 9.37389C5.88294 9.33013 5.92294 9.27713 5.95156 9.21791C5.98017 9.15869 5.99684 9.09442 6.00062 9.02876C6.01465 8.77937 6.05402 8.53205 6.11812 8.29063C6.11812 8.28063 6.12374 8.27063 6.12562 8.26063C6.30939 7.58528 6.67832 6.97477 7.19074 6.49802C7.70317 6.02127 8.33867 5.69728 9.0255 5.56263C9.71233 5.42798 10.4231 5.48803 11.0776 5.73601C11.7321 5.98399 12.3043 6.41002 12.7294 6.96598C13.1546 7.52195 13.4159 8.18571 13.4837 8.88232C13.5516 9.57893 13.4233 10.2806 13.1135 10.9082C12.8036 11.5358 12.3244 12.0642 11.7301 12.4338C11.1357 12.8035 10.4499 12.9996 9.74999 13Z" fill="#92BFFF"/>
</svg>
