<svg width="17" height="16" viewBox="0 0 17 16" fill="none" xmlns="http://www.w3.org/2000/svg">
<path d="M12 5.59812V5.25C12 3.6825 9.63562 2.5 6.5 2.5C3.36438 2.5 1 3.6825 1 5.25V7.75C1 9.05562 2.64062 10.0931 5 10.4038V10.75C5 12.3175 7.36438 13.5 10.5 13.5C13.6356 13.5 16 12.3175 16 10.75V8.25C16 6.95625 14.4113 5.9175 12 5.59812ZM15 8.25C15 9.07625 13.0756 10 10.5 10C10.2669 10 10.0356 9.99188 9.8075 9.97688C11.1556 9.48563 12 8.6875 12 7.75V6.60875C13.8669 6.88687 15 7.64188 15 8.25ZM5 9.39062V7.90375C5.49736 7.96856 5.99843 8.00071 6.5 8C7.00157 8.00071 7.50264 7.96856 8 7.90375V9.39062C7.50338 9.46399 7.00201 9.50055 6.5 9.5C5.99799 9.50055 5.49662 9.46399 5 9.39062ZM11 6.87063V7.75C11 8.27438 10.2244 8.8375 9 9.17937V7.71875C9.80687 7.52312 10.49 7.23188 11 6.87063ZM6.5 3.5C9.07562 3.5 11 4.42375 11 5.25C11 6.07625 9.07562 7 6.5 7C3.92438 7 2 6.07625 2 5.25C2 4.42375 3.92438 3.5 6.5 3.5ZM2 7.75V6.87063C2.51 7.23188 3.19313 7.52312 4 7.71875V9.17937C2.77562 8.8375 2 8.27438 2 7.75ZM6 10.75V10.4894C6.16438 10.4956 6.33062 10.5 6.5 10.5C6.7425 10.5 6.97937 10.4919 7.21187 10.4781C7.47016 10.5706 7.73325 10.649 8 10.7131V12.1794C6.77562 11.8375 6 11.2744 6 10.75ZM9 12.3906V10.9C9.4972 10.9668 9.99833 11.0002 10.5 11C11.0016 11.0007 11.5026 10.9686 12 10.9038V12.3906C11.0053 12.5365 9.99468 12.5365 9 12.3906ZM13 12.1794V10.7188C13.8069 10.5231 14.49 10.2319 15 9.87062V10.75C15 11.2744 14.2244 11.8375 13 12.1794Z" fill="#F4C95D"/>
</svg>
